<svg version="1.1" id="Layer_1" xmlns="http://www.w3.org/2000/svg" xmlns:xlink="http://www.w3.org/1999/xlink" x="0px" y="0px"
	 width="100%" viewBox="0 0 1910 1118" enable-background="new 0 0 1910 1118" xml:space="preserve">
<path fill="#FFFFFF" opacity="1.000000" stroke="none" 
	d="
M1241.000000,1119.000000 
	C828.833435,1119.000000 417.166809,1118.994019 5.500243,1119.092896 
	C1.751739,1119.093872 0.905921,1118.249878 0.906933,1114.500244 
	C1.006642,744.833618 1.006629,375.167023 0.907052,5.500446 
	C0.906043,1.752378 1.749529,0.906612 5.499592,0.907184 
	C639.166138,1.003883 1272.832764,1.003871 1906.499268,0.907397 
	C1910.246460,0.906826 1911.094116,1.748310 1911.093140,5.499261 
	C1910.993286,375.165833 1910.993164,744.832397 1911.092651,1114.499023 
	C1911.093628,1118.245605 1910.252686,1119.095337 1906.500977,1119.093628 
	C1684.833984,1118.988892 1463.166992,1119.000000 1241.000000,1119.000000 
z"/>
<path fill="#4BA241" opacity="1.000000" stroke="none" 
	d="
M561.614807,658.626465 
	C545.857605,696.918152 507.875763,719.520325 467.606720,714.812256 
	C427.733215,710.150513 395.763245,679.984802 389.398682,639.892761 
	C384.658630,610.033936 393.231903,583.873047 414.339966,562.112244 
	C426.286835,549.795898 438.453278,537.684692 450.791138,525.760803 
	C454.122437,522.541321 454.531158,520.881836 450.952545,517.373474 
	C430.490570,497.312897 410.398651,476.875244 389.993164,456.756195 
	C387.013702,453.818573 386.902527,452.261749 390.004181,449.443970 
	C395.669983,444.296570 401.087036,438.842346 406.253723,433.192291 
	C408.882111,430.318024 410.310730,430.754150 412.840515,433.309601 
	C433.352814,454.029480 454.076599,474.540192 474.558411,495.289886 
	C477.383759,498.152222 478.812958,497.928619 481.499298,495.212616 
	C501.884888,474.601685 522.485962,454.203918 542.869385,433.590820 
	C545.567871,430.862030 547.103882,430.529022 549.836121,433.511047 
	C555.121033,439.279144 560.701904,444.797485 566.433533,450.125244 
	C569.033997,452.542511 568.879272,453.873505 566.409302,456.318359 
	C545.687988,476.829254 525.185425,497.561584 504.414307,518.021423 
	C501.358337,521.031616 501.670593,522.496094 504.544800,525.275879 
	C516.518433,536.856262 528.357239,548.582031 540.031921,560.464233 
	C567.588318,588.510498 574.494507,621.236206 561.614807,658.626465 
z"/>
<path fill="#4AA141" opacity="1.000000" stroke="none" 
	d="
M1093.107666,597.000793 
	C1088.604126,597.745605 1087.737427,595.951355 1087.751465,592.119751 
	C1087.892456,553.465820 1087.829468,514.811218 1087.867920,476.156860 
	C1087.869507,474.585846 1087.007812,472.302002 1088.620239,471.586121 
	C1090.653931,470.683258 1091.639771,473.118042 1092.826294,474.342865 
	C1112.638794,494.795868 1132.441284,515.258850 1152.142822,535.818542 
	C1154.513672,538.292542 1155.728027,538.402161 1158.269409,535.750366 
	C1178.203003,514.950256 1198.344971,494.349884 1218.443848,473.708557 
	C1219.453247,472.672028 1220.386353,470.886017 1221.998169,471.364746 
	C1223.910278,471.932770 1222.955933,473.944153 1222.957764,475.274384 
	C1223.011597,514.428589 1222.949829,553.583008 1223.086060,592.736755 
	C1223.098511,596.319641 1222.079102,597.238159 1218.632202,597.080872 
	C1212.480347,596.800049 1206.296143,596.788635 1200.145630,597.083923 
	C1196.589478,597.254761 1195.723389,596.107605 1195.754639,592.643250 
	C1195.924438,573.817444 1195.835815,554.989258 1195.836182,536.161926 
	C1195.836304,535.229736 1195.836304,534.297546 1195.836304,533.427246 
	C1193.894653,532.999146 1193.361694,534.276855 1192.642456,535.039062 
	C1181.216919,547.147705 1169.744629,559.214539 1158.492920,571.483459 
	C1155.858765,574.355713 1154.366821,574.088684 1151.868774,571.385803 
	C1140.006348,558.550232 1127.956665,545.887817 1115.937744,533.125610 
	C1114.254150,534.356140 1115.050781,535.976562 1115.046021,537.302551 
	C1114.980835,555.463196 1114.810181,573.627563 1115.133667,591.782654 
	C1115.216309,596.409424 1113.793823,597.377563 1109.585327,597.088867 
	C1104.278564,596.724609 1098.927979,597.000793 1093.107666,597.000793 
z"/>
<path fill="#4BA141" opacity="1.000000" stroke="none" 
	d="
M834.305176,555.018372 
	C830.990295,555.679138 832.240356,557.986877 832.224487,559.532410 
	C832.111572,570.523804 831.971863,581.522034 832.265259,592.506714 
	C832.369629,596.412781 831.094543,597.248596 827.490417,597.084229 
	C821.174500,596.796143 814.821350,596.743225 808.512390,597.098877 
	C804.648682,597.316772 803.897522,596.029297 803.912292,592.385986 
	C804.054565,557.243774 803.998047,522.100708 803.998108,486.957886 
	C803.998108,475.998016 804.000549,475.840118 815.152161,476.034760 
	C832.455078,476.336792 849.793213,474.961945 867.057068,477.009399 
	C870.016785,477.360443 872.951782,478.019470 875.858154,478.705841 
	C900.647217,484.559875 906.982544,503.206543 902.082703,524.346802 
	C899.677307,534.724976 892.542480,541.200867 882.882568,545.070129 
	C880.304016,546.102905 877.636047,546.912537 874.331970,548.059692 
	C891.842773,557.894714 899.963074,573.751221 905.577515,591.340271 
	C907.368835,596.952087 907.254028,596.997314 901.198425,597.000793 
	C894.702820,597.004578 888.189636,596.712341 881.717834,597.105042 
	C877.479187,597.362183 875.836975,596.086182 875.038574,591.810181 
	C872.720886,579.396484 865.822327,569.588318 856.553406,561.217712 
	C850.236938,555.513428 842.833618,554.260986 834.305176,555.018372 
z"/>
<path fill="#4BA242" opacity="1.000000" stroke="none" 
	d="
M757.002991,551.003479 
	C757.002991,559.167236 756.926636,566.832581 757.048950,574.494812 
	C757.086304,576.838440 756.377136,578.524475 754.747437,580.222046 
	C729.401306,606.623169 679.627502,606.163818 655.961365,578.655273 
	C639.022400,558.966187 637.531799,535.806580 645.775635,512.390320 
	C653.624695,490.095306 671.401794,478.659973 694.206787,475.019897 
	C711.225525,472.303436 727.785706,473.881256 742.931274,483.010986 
	C755.048279,490.315155 755.073547,490.916016 745.882202,501.544281 
	C743.268066,504.567169 741.180542,509.180847 737.943542,510.210541 
	C734.703430,511.241180 732.740723,505.735809 729.526123,503.804413 
	C716.803345,496.160156 703.613403,495.390167 690.450378,501.708649 
	C676.805298,508.258514 671.871521,520.539917 671.209778,534.879822 
	C670.828064,543.152222 672.217346,551.177002 676.287903,558.504456 
	C685.446777,574.991760 708.741211,581.167664 725.134155,571.666565 
	C728.068909,569.965637 729.195923,567.923096 729.083923,564.470581 
	C728.814026,556.148682 729.098450,547.810181 728.939453,539.482605 
	C728.886780,536.723999 729.590576,535.689148 732.519897,535.772400 
	C739.511963,535.971130 746.517639,535.975159 753.509277,535.767761 
	C756.483032,535.679626 757.199890,536.788025 757.051941,539.510498 
	C756.853271,543.165039 757.002930,546.838562 757.002991,551.003479 
z"/>
<path fill="#4DA343" opacity="1.000000" stroke="none" 
	d="
M993.008423,499.583435 
	C980.854187,499.584442 980.794983,499.584900 980.886719,511.201141 
	C980.918030,515.173035 979.179199,520.309143 981.598877,522.817139 
	C984.233643,525.548157 989.466736,523.660156 993.553528,523.715088 
	C1004.382568,523.860657 1015.216797,523.878845 1026.044678,523.695862 
	C1029.153442,523.643311 1030.108643,524.551514 1029.920410,527.635498 
	C1029.656860,531.951721 1029.592285,536.317200 1029.934204,540.622559 
	C1030.256348,544.680542 1029.104980,546.061829 1024.797852,545.965454 
	C1011.640625,545.670837 998.471130,545.965881 985.309753,545.785095 
	C981.950073,545.738953 980.595825,546.447815 980.773682,550.115234 
	C981.079956,556.432373 981.057373,562.783875 980.780518,569.103760 
	C980.620178,572.762085 981.621582,573.916809 985.456543,573.865051 
	C1002.283325,573.637878 1019.116089,573.871338 1035.943604,573.672546 
	C1039.499146,573.630493 1040.521118,574.624023 1040.309692,578.109375 
	C1040.007568,583.089966 1040.079468,588.109009 1040.291016,593.098999 
	C1040.414673,596.016235 1039.772339,597.108398 1036.515015,597.090759 
	C1009.854858,596.945740 983.193237,596.946289 956.532959,597.085266 
	C953.201050,597.102600 952.329895,596.132935 952.349854,592.895691 
	C952.478333,572.067566 952.416199,551.238342 952.416138,530.409424 
	C952.416077,513.746277 952.503723,497.082306 952.341370,480.420746 
	C952.308289,477.021515 953.117859,475.888611 956.717712,475.909363 
	C983.211182,476.062378 1009.706299,476.054718 1036.199829,475.908600 
	C1039.546875,475.890167 1040.453613,476.874542 1040.300293,480.082550 
	C1040.053955,485.236359 1040.017090,490.422821 1040.308838,495.571808 
	C1040.505859,499.049286 1039.102539,499.677216 1035.996948,499.646515 
	C1021.834656,499.506561 1007.670166,499.584167 993.008423,499.583435 
z"/>
<path fill="#4CA242" opacity="1.000000" stroke="none" 
	d="
M1426.078857,531.043335 
	C1435.590698,511.976532 1444.938599,493.243896 1454.364380,474.550446 
	C1455.052490,473.185486 1455.199219,470.895813 1457.324341,471.000580 
	C1459.374390,471.101654 1459.420654,473.356018 1460.071167,474.757660 
	C1478.113892,513.634705 1496.110718,552.533020 1514.096313,591.436523 
	C1516.655396,596.971863 1516.610474,596.998474 1510.684692,597.003418 
	C1503.025757,597.009766 1495.365723,596.928650 1487.708740,597.051575 
	C1485.287354,597.090515 1483.399780,596.778503 1482.943115,594.023254 
	C1481.238770,583.740051 1474.902588,581.463074 1465.262939,582.375488 
	C1455.526733,583.296936 1445.633545,582.679382 1435.812866,582.518494 
	C1432.777954,582.468750 1430.631470,583.030029 1429.943848,586.319397 
	C1428.074585,595.262024 1422.737061,598.533875 1413.664551,597.143494 
	C1408.621704,596.370728 1403.349487,596.776917 1398.205688,597.077332 
	C1393.848755,597.331848 1393.440918,596.132202 1395.320435,592.433411 
	C1405.180786,573.028564 1414.862793,553.533142 1424.606079,534.068848 
	C1425.052612,533.176880 1425.491455,532.281189 1426.078857,531.043335 
z"/>
<path fill="#4CA242" opacity="1.000000" stroke="none" 
	d="
M1341.263306,475.781433 
	C1353.643188,478.759888 1363.232910,485.077057 1370.242310,495.330261 
	C1371.887939,497.737335 1371.874756,499.133606 1369.538696,501.043762 
	C1364.644775,505.045349 1360.014771,509.369354 1355.268677,513.552124 
	C1353.979736,514.688110 1352.896606,515.903809 1351.586670,513.304871 
	C1344.602783,499.449463 1332.601074,495.711823 1318.422485,498.179962 
	C1304.338989,500.631622 1296.050903,509.936981 1292.515747,523.471802 
	C1290.071045,532.831787 1290.216064,542.316101 1293.122070,551.575012 
	C1296.936035,563.725952 1304.704224,572.219116 1317.440308,574.872803 
	C1331.016357,577.701416 1343.233032,574.950195 1352.784668,564.061768 
	C1353.330688,563.439331 1353.882080,562.821777 1354.729004,561.865601 
	C1359.766357,567.797791 1364.609985,573.688599 1369.678345,579.379272 
	C1371.708984,581.659302 1369.854492,582.569519 1368.640747,583.743286 
	C1360.096924,592.005249 1349.752808,596.646362 1338.125977,598.432068 
	C1320.679565,601.111694 1303.823608,599.425476 1288.615112,589.791321 
	C1267.020386,576.111877 1259.909912,555.388245 1261.315918,530.967224 
	C1263.511353,492.836639 1294.299927,469.989471 1333.993530,474.449860 
	C1336.299805,474.709045 1338.572876,475.265289 1341.263306,475.781433 
z"/>
<path fill="#4BA242" opacity="1.000000" stroke="none" 
	d="
M479.168182,452.219788 
	C476.651062,453.791412 475.983459,451.513184 474.986755,450.525055 
	C461.625702,437.279083 448.406342,423.889618 434.983673,410.706970 
	C432.509583,408.277100 432.367920,406.920349 434.969513,404.502502 
	C440.697601,399.178894 446.230042,393.625397 451.567535,387.909241 
	C454.116516,385.179443 455.725098,384.674286 458.513062,387.749725 
	C463.650970,393.417450 469.465546,398.471863 474.600281,404.142181 
	C477.384979,407.217316 478.978241,406.698486 481.517792,403.980530 
	C486.857361,398.265839 492.628693,392.955933 498.008942,387.277222 
	C500.071960,385.099792 501.286621,384.851349 503.479614,387.180115 
	C509.070374,393.116943 514.835938,398.904205 520.781982,404.484314 
	C523.323425,406.869293 523.313416,408.256744 520.812561,410.713745 
	C506.917206,424.365692 493.201355,438.200439 479.168182,452.219788 
z"/>
<path fill="#5AA951" opacity="1.000000" stroke="none" 
	d="
M1060.903442,671.654785 
	C1060.791748,673.361267 1061.253662,674.977905 1059.149292,674.976013 
	C1057.072998,674.974182 1057.369141,673.376221 1057.364502,672.114258 
	C1057.334229,663.789490 1057.334351,655.464539 1057.360352,647.139771 
	C1057.364380,645.867371 1057.087280,644.365479 1059.069824,644.124084 
	C1060.875732,643.904114 1061.780273,644.756592 1062.402466,646.374390 
	C1064.650146,652.218750 1066.989624,658.027710 1069.730591,664.951599 
	C1071.115112,661.836670 1070.629272,659.601318 1070.676758,657.491211 
	C1070.759277,653.830017 1070.703125,650.165833 1070.711670,646.502869 
	C1070.714478,645.284607 1070.777588,644.121399 1072.471802,644.112366 
	C1073.731934,644.105652 1074.270142,644.747803 1074.270142,645.936157 
	C1074.270264,655.093140 1074.263428,664.250061 1074.266602,673.407043 
	C1074.267090,674.743713 1073.458984,674.964661 1072.331055,675.060669 
	C1070.739868,675.196106 1069.876099,674.490417 1069.323486,673.085327 
	C1067.257202,667.830994 1065.157227,662.590027 1063.061646,657.347229 
	C1062.656128,656.332520 1062.214600,655.332092 1060.904297,654.544006 
	C1060.904297,660.093750 1060.904297,665.643494 1060.903442,671.654785 
z"/>
<path fill="#55A74D" opacity="1.000000" stroke="none" 
	d="
M1392.884399,654.051392 
	C1392.884888,660.365051 1392.908203,666.188843 1392.867554,672.012146 
	C1392.859009,673.230469 1393.339600,674.818848 1391.252319,675.000366 
	C1389.599731,675.144104 1388.486816,674.778931 1387.804077,672.980652 
	C1385.528076,666.985962 1383.066772,661.061646 1380.676514,655.110352 
	C1380.209229,655.146973 1379.742065,655.183533 1379.274780,655.220154 
	C1379.274780,660.504089 1379.363892,665.790649 1379.213745,671.070312 
	C1379.174927,672.431641 1380.391724,674.896240 1377.608643,674.905334 
	C1374.790894,674.914612 1376.055176,672.432373 1376.032959,671.101196 
	C1375.902466,663.283081 1375.926147,655.461243 1376.009399,647.641846 
	C1376.022827,646.375610 1375.134644,644.485596 1377.565186,644.141846 
	C1379.722900,643.836609 1380.439697,645.197937 1381.082642,646.858215 
	C1383.388794,652.812561 1385.749756,658.745544 1389.113770,664.496338 
	C1389.113770,658.961426 1389.060059,653.425720 1389.150269,647.892273 
	C1389.173828,646.442383 1388.319336,644.115601 1391.081055,644.226746 
	C1393.757080,644.334473 1392.729980,646.619995 1392.848999,648.073486 
	C1392.997925,649.891541 1392.884521,651.731140 1392.884399,654.051392 
z"/>
<path fill="#5AA951" opacity="1.000000" stroke="none" 
	d="
M1426.099365,650.148743 
	C1426.728027,647.680481 1424.377563,644.460693 1428.803589,644.051880 
	C1436.511597,643.339844 1441.546509,644.920227 1441.451050,649.472351 
	C1441.306885,656.337830 1442.046997,663.170410 1441.724609,669.978088 
	C1441.539551,673.889465 1438.044434,674.994385 1434.337524,675.074219 
	C1426.092285,675.251648 1426.093628,675.317749 1426.095337,667.091248 
	C1426.096436,661.603455 1426.098022,656.115601 1426.099365,650.148743 
z"/>
<path fill="#55A74D" opacity="1.000000" stroke="none" 
	d="
M918.445679,668.621338 
	C917.929443,667.328186 917.516785,666.408691 917.276306,665.446228 
	C916.865601,663.802429 916.087585,662.783508 914.192444,662.928833 
	C911.859985,663.107666 912.315613,664.822144 912.285828,666.242065 
	C912.237000,668.570068 912.244202,670.899658 912.258423,673.228333 
	C912.265930,674.450378 911.735168,675.027405 910.483643,675.025330 
	C909.210876,675.023193 908.741211,674.394836 908.742065,673.193970 
	C908.748596,664.210876 908.727417,655.227783 908.760132,646.244873 
	C908.762329,645.636963 908.946472,644.816162 909.360535,644.457642 
	C912.203308,641.996277 922.308289,644.842346 923.233521,648.611755 
	C924.297607,652.947144 925.116272,657.600952 921.347900,661.228333 
	C920.052368,662.475464 920.353394,663.397400 920.868225,664.677551 
	C921.859253,667.141663 922.843933,669.614197 923.665039,672.137390 
	C923.956604,673.033569 925.097290,674.412231 923.166260,674.922241 
	C921.986633,675.233948 920.805542,675.055542 920.290955,673.667053 
	C919.714478,672.111389 919.179749,670.540222 918.445679,668.621338 
z"/>
<path fill="#5FAC57" opacity="1.000000" stroke="none" 
	d="
M1266.941650,654.185242 
	C1266.986816,646.310364 1269.076416,643.669312 1274.855835,643.710510 
	C1279.897461,643.746460 1282.538574,646.223083 1282.654907,651.355103 
	C1282.779297,656.844971 1282.785034,662.342285 1282.654419,667.831848 
	C1282.530151,673.061768 1279.479980,675.848938 1274.438232,675.647156 
	C1269.511719,675.450073 1267.035278,672.853516 1266.954590,667.640137 
	C1266.887573,663.313599 1266.941528,658.985168 1266.941650,654.185242 
z"/>
<path fill="#5AA951" opacity="1.000000" stroke="none" 
	d="
M1119.171143,644.098511 
	C1120.288086,644.095825 1120.952515,644.091919 1121.617065,644.096130 
	C1130.387207,644.151428 1135.421997,652.144653 1130.301392,659.362305 
	C1127.389038,663.467224 1129.523682,665.903381 1130.177612,669.181580 
	C1130.555176,671.073608 1133.756592,673.545654 1130.654419,674.794800 
	C1127.475708,676.074707 1127.657593,672.206055 1126.779541,670.328186 
	C1125.870728,668.384827 1125.257812,666.304688 1124.476929,664.299438 
	C1123.955933,662.961670 1122.812866,662.898254 1121.588257,662.935608 
	C1119.869385,662.988098 1119.921265,664.190369 1119.914185,665.368225 
	C1119.900269,667.693909 1119.904297,670.019775 1119.898071,672.345520 
	C1119.894409,673.720398 1119.928589,675.073547 1117.911133,675.012024 
	C1116.272095,674.961914 1116.103271,673.924683 1116.103882,672.669739 
	C1116.107910,664.031067 1116.130493,655.392273 1116.086426,646.753845 
	C1116.076782,644.870667 1116.804810,643.958069 1119.171143,644.098511 
z"/>
<path fill="#5FAC57" opacity="1.000000" stroke="none" 
	d="
M890.078613,665.707397 
	C890.079834,659.426514 890.036194,653.611755 890.112000,647.798523 
	C890.131226,646.322876 889.369629,644.099365 892.122253,644.175049 
	C894.465393,644.239441 893.885437,646.184387 893.895630,647.547424 
	C893.946716,654.357971 894.022339,661.171082 893.888916,667.979370 
	C893.790649,672.997253 890.943115,675.632324 886.038330,675.653442 
	C881.138428,675.674561 878.213867,673.027405 878.113281,668.052368 
	C877.972229,661.078186 878.067139,654.098938 878.091125,647.122009 
	C878.095520,645.841309 877.825317,644.277283 879.811401,644.156372 
	C882.163452,644.013062 881.907593,645.773621 881.912720,647.238525 
	C881.934937,653.550964 881.939819,659.863708 881.915161,666.176208 
	C881.903625,669.117859 881.770691,672.062500 886.000671,672.061951 
	C890.231384,672.061401 890.131775,669.114014 890.078613,665.707397 
z"/>
<path fill="#5FAC57" opacity="1.000000" stroke="none" 
	d="
M801.683777,659.953369 
	C801.692688,662.774170 801.677795,665.105713 801.716858,667.436340 
	C801.766052,670.371033 802.960083,672.228088 806.219727,672.053345 
	C809.237061,671.891663 810.098328,670.025818 810.083801,667.331604 
	C810.048767,660.837280 810.034668,654.342102 810.113708,647.848572 
	C810.131592,646.379944 809.338379,644.085571 812.083679,644.190430 
	C814.762817,644.292847 813.860779,646.570007 813.880676,648.020691 
	C813.969788,654.513977 814.017212,661.011047 813.888733,667.502991 
	C813.784180,672.785461 810.813416,675.671448 805.864441,675.665405 
	C800.895447,675.659241 798.058716,672.816101 797.969666,667.421997 
	C797.859680,660.762817 797.906860,654.100037 797.973083,647.439697 
	C797.986145,646.128967 797.277283,644.131409 799.760803,644.164490 
	C802.100403,644.195618 801.641907,646.076477 801.661987,647.474243 
	C801.719299,651.470032 801.683228,655.467163 801.683777,659.953369 
z"/>
<path fill="#55A74D" opacity="1.000000" stroke="none" 
	d="
M735.419678,665.324402 
	C736.679443,668.602966 737.764832,671.523682 738.858765,674.467407 
	C736.367493,675.664307 734.940796,674.994019 734.145264,672.587524 
	C733.261780,669.914978 732.188599,667.304993 731.313538,664.630005 
	C730.775452,662.985046 729.617432,662.800293 728.200134,662.953735 
	C726.534851,663.133972 726.667969,664.421936 726.649109,665.559937 
	C726.607971,668.049438 726.611572,670.539734 726.605530,673.029663 
	C726.601868,674.507751 725.824097,675.062256 724.408997,675.002808 
	C722.934937,674.940918 722.988831,673.873901 722.987000,672.898376 
	C722.970703,664.099976 722.976562,655.301575 722.977661,646.503174 
	C722.977783,645.666748 722.989746,644.434631 723.809082,644.366272 
	C727.419861,644.064697 731.123962,643.437073 734.585449,645.060181 
	C737.330139,646.347229 738.139709,648.798767 738.035889,651.668701 
	C737.906311,655.247681 738.818542,659.083374 735.333191,661.781555 
	C734.074280,662.756104 735.105835,663.897461 735.419678,665.324402 
z"/>
<path fill="#55A74D" opacity="1.000000" stroke="none" 
	d="
M1157.678955,647.757690 
	C1150.323975,646.855103 1149.291870,647.747803 1149.276123,654.601624 
	C1149.266235,658.930603 1149.299561,663.259705 1149.274780,667.588501 
	C1149.256592,670.772644 1150.880859,672.009277 1153.961060,671.979126 
	C1157.197876,671.947449 1157.194214,669.865173 1157.123169,667.561768 
	C1157.066650,665.732056 1157.145142,663.898376 1157.103638,662.067871 
	C1157.073730,660.750305 1157.327148,659.777466 1158.939453,659.761353 
	C1160.474609,659.745972 1160.925659,660.527710 1160.899292,661.948181 
	C1160.840820,665.110596 1161.039062,668.285400 1160.833984,671.435669 
	C1160.561279,675.627747 1157.015381,674.975586 1154.418091,675.162659 
	C1150.627197,675.435730 1146.376099,675.025024 1146.003662,670.266907 
	C1145.459839,663.319580 1145.513672,656.279358 1145.946533,649.318176 
	C1146.230957,644.742065 1155.394043,641.674683 1159.090942,644.714172 
	C1160.677979,646.018982 1160.932007,647.564331 1157.678955,647.757690 
z"/>
<path fill="#5AA951" opacity="1.000000" stroke="none" 
	d="
M705.991455,644.409058 
	C707.883362,646.914001 707.915833,648.076050 704.441956,647.713501 
	C697.384155,646.976990 696.681885,647.735107 696.658325,654.826599 
	C696.645081,658.817993 696.685059,662.809631 696.660339,666.800903 
	C696.641602,669.823181 697.407349,671.962036 701.078735,671.982056 
	C704.895020,672.002808 704.779724,669.542664 704.710876,666.924683 
	C704.667175,665.262817 704.733337,663.598206 704.699768,661.935852 
	C704.672363,660.583435 705.024841,659.657593 706.628418,659.736084 
	C707.914001,659.799011 708.306824,660.537903 708.299255,661.692017 
	C708.276428,665.184204 708.281067,668.676636 708.255188,672.168762 
	C708.248657,673.046326 707.951050,673.758606 707.037659,674.123047 
	C703.512573,675.529358 699.927246,675.892700 696.382385,674.380371 
	C693.225403,673.033569 693.042175,670.176636 693.081970,667.228149 
	C693.142578,662.738586 693.093506,658.247559 693.096008,653.757141 
	C693.100464,645.745178 695.204712,643.690857 703.149902,643.973633 
	C703.977051,644.003052 704.799500,644.167419 705.991455,644.409058 
z"/>
<path fill="#5AA951" opacity="1.000000" stroke="none" 
	d="
M668.034790,648.885254 
	C668.833923,646.682007 668.158875,643.986328 671.580750,644.037354 
	C674.923950,644.087219 674.546448,646.604614 675.006470,648.533691 
	C676.664001,655.485474 678.404236,662.427490 679.688293,669.450867 
	C679.992126,671.113159 682.645386,673.973572 679.343384,674.841309 
	C676.002258,675.719360 676.656982,672.022034 676.362732,670.312744 
	C675.852905,667.350891 674.518127,666.594543 671.692993,666.566284 
	C668.644958,666.535767 667.203247,667.397827 666.717041,670.591064 
	C666.466553,672.236328 666.978333,675.955566 663.533813,674.802490 
	C660.863770,673.908752 663.095093,671.328430 663.402649,669.722961 
	C664.715210,662.871399 666.411621,656.093506 668.034790,648.885254 
z"/>
<path fill="#5AA951" opacity="1.000000" stroke="none" 
	d="
M938.961426,661.734009 
	C940.043396,656.784058 941.009338,652.235168 942.101440,647.716675 
	C942.505371,646.045715 942.537659,644.134277 945.240051,644.027832 
	C947.884216,643.923645 948.224121,645.582336 948.628906,647.366333 
	C950.466736,655.465576 952.309509,663.564331 954.024780,671.689819 
	C954.239258,672.705750 955.678711,674.332092 953.433960,674.942871 
	C951.361206,675.506836 951.029358,674.027954 950.619934,672.462952 
	C949.873535,669.609741 950.247314,666.255310 945.213318,666.458191 
	C940.942932,666.630249 940.981812,669.197876 940.348999,671.843323 
	C939.970459,673.425354 939.996155,675.491577 937.521973,674.959167 
	C934.833984,674.380737 936.692017,672.554443 936.886841,671.395752 
	C937.409424,668.288147 938.207031,665.226807 938.961426,661.734009 
z"/>
<path fill="#5AA951" opacity="1.000000" stroke="none" 
	d="
M1200.105835,666.660095 
	C1195.713013,666.578552 1196.743896,669.969543 1196.041016,672.023621 
	C1195.486694,673.643250 1195.340332,675.643555 1193.028687,674.885498 
	C1190.875854,674.179443 1192.255127,672.400208 1192.535156,671.130676 
	C1194.282471,663.210754 1196.160034,655.319275 1197.868652,647.391174 
	C1198.293213,645.421082 1198.684570,643.978699 1201.205322,644.052429 
	C1203.470337,644.118835 1203.808838,645.424133 1204.199829,647.192627 
	C1206.022095,655.434021 1207.994751,663.642151 1209.814453,671.884155 
	C1210.053589,672.967285 1210.941162,674.642761 1208.738281,674.990662 
	C1206.936768,675.275146 1206.464722,673.974243 1206.215942,672.618958 
	C1205.621704,669.381958 1205.610229,665.649475 1200.105835,666.660095 
z"/>
<path fill="#55A74D" opacity="1.000000" stroke="none" 
	d="
M1301.383545,647.721436 
	C1297.473267,652.184448 1298.018066,655.083313 1303.454590,657.855713 
	C1308.139160,660.244690 1311.515991,663.061035 1310.635498,668.938660 
	C1310.229736,671.647095 1309.059204,673.774658 1306.424438,674.583496 
	C1303.037109,675.623230 1299.536621,675.677856 1296.176025,674.378296 
	C1295.404907,674.080078 1295.286255,673.024536 1295.511719,672.157593 
	C1295.802612,671.039307 1296.623779,671.231628 1297.476807,671.354492 
	C1299.114136,671.590332 1300.769409,671.939941 1302.405396,671.885437 
	C1304.474243,671.816406 1306.481201,671.159302 1306.861694,668.732910 
	C1307.199219,666.582214 1307.280518,664.336060 1305.013672,662.970886 
	C1303.593506,662.115417 1302.116333,661.354980 1300.673950,660.535950 
	C1295.687012,657.704163 1293.926514,653.478760 1295.647095,648.492126 
	C1296.934448,644.761169 1301.275146,643.066101 1306.628906,644.115356 
	C1308.031006,644.390198 1309.343750,644.648254 1309.208130,646.449097 
	C1309.030151,648.810120 1307.380981,647.604980 1306.232300,647.594055 
	C1304.754639,647.580017 1303.276855,647.572632 1301.383545,647.721436 
z"/>
<path fill="#5AA951" opacity="1.000000" stroke="none" 
	d="
M1238.744141,652.734009 
	C1239.307617,645.320740 1243.884033,642.197083 1250.664917,644.179199 
	C1251.841309,644.523071 1252.962280,644.893066 1252.834717,646.413391 
	C1252.641235,648.720947 1250.973389,647.711243 1249.826172,647.625305 
	C1247.073364,647.419067 1243.870972,646.322083 1242.821533,650.172729 
	C1241.799194,653.923523 1243.597290,656.230530 1247.046631,658.047852 
	C1253.953613,661.686707 1254.924683,663.707520 1254.014648,669.601135 
	C1253.583618,672.392761 1251.946777,674.221558 1249.317017,674.791504 
	C1246.078369,675.493347 1242.721436,675.807861 1239.583130,674.278809 
	C1238.787720,673.891235 1238.868408,672.824280 1239.086792,672.009766 
	C1239.400635,670.838501 1240.325439,671.246277 1241.099121,671.355286 
	C1242.412476,671.540161 1243.720459,671.883484 1245.035645,671.908569 
	C1247.273315,671.951477 1249.549683,671.639343 1250.136963,668.976074 
	C1250.694946,666.445923 1250.609619,663.965332 1247.808838,662.534790 
	C1246.332153,661.780579 1244.919678,660.900635 1243.443604,660.145203 
	C1240.556763,658.667847 1238.739380,656.510132 1238.744141,652.734009 
z"/>
<path fill="#5AA951" opacity="1.000000" stroke="none" 
	d="
M1096.884766,657.955078 
	C1098.746338,658.369751 1101.230591,656.897339 1101.411743,659.349182 
	C1101.611206,662.051453 1098.950928,661.167786 1097.668823,660.960632 
	C1091.646240,659.987610 1093.275757,664.217102 1092.833984,667.406738 
	C1092.217163,671.860962 1094.567383,672.362976 1097.998779,671.968140 
	C1098.817505,671.874023 1099.657837,671.939270 1100.486938,671.968018 
	C1101.653809,672.008484 1102.964478,671.932800 1102.792725,673.710266 
	C1102.657227,675.113220 1101.514648,674.945312 1100.560791,675.033081 
	C1100.395874,675.048218 1100.228027,675.030518 1100.062988,675.044189 
	C1089.095581,675.954529 1089.095703,675.954712 1089.097656,664.864197 
	C1089.098633,659.219971 1089.262939,653.569092 1089.034668,647.934143 
	C1088.907471,644.792114 1090.055420,643.805298 1093.042725,644.055908 
	C1095.515625,644.263428 1098.019409,644.093811 1100.509399,644.110596 
	C1101.737305,644.118896 1102.946655,644.256592 1102.798706,645.936890 
	C1102.677856,647.309937 1101.554932,647.237976 1100.574097,647.289978 
	C1100.077271,647.316345 1099.564087,647.224182 1099.082764,647.315491 
	C1097.091675,647.693298 1094.093506,646.090698 1093.287964,648.465393 
	C1092.429321,650.996521 1092.788086,654.056885 1093.107300,656.829651 
	C1093.315308,658.636719 1095.257935,657.709534 1096.884766,657.955078 
z"/>
<path fill="#5FAC57" opacity="1.000000" stroke="none" 
	d="
M1043.171631,644.408875 
	C1044.658569,647.895325 1042.189331,647.234741 1040.507690,647.316223 
	C1033.955444,647.633606 1032.703247,649.406311 1033.888916,655.999634 
	C1034.440308,659.065247 1036.623901,657.501892 1038.115234,657.947815 
	C1039.632446,658.401306 1042.415039,656.737366 1042.419434,659.601379 
	C1042.423218,662.072205 1039.754272,661.162048 1038.422607,660.972290 
	C1032.698975,660.156799 1034.164062,664.129395 1033.875610,667.199463 
	C1033.551514,670.649597 1034.289185,672.738647 1038.328247,671.953918 
	C1038.808594,671.860657 1039.343872,671.849182 1039.816895,671.958801 
	C1041.230225,672.286438 1043.751587,670.938354 1043.725830,673.521545 
	C1043.700195,676.068237 1041.194580,674.972046 1039.778442,675.010315 
	C1030.317383,675.266174 1030.315918,675.222473 1030.316162,665.808533 
	C1030.316284,659.994202 1030.444092,654.175964 1030.265625,648.367126 
	C1030.171631,645.309570 1030.808838,643.638367 1034.342773,644.024536 
	C1037.135864,644.329773 1039.980591,644.162354 1043.171631,644.408875 
z"/>
<path fill="#5AA951" opacity="1.000000" stroke="none" 
	d="
M1485.044434,654.797363 
	C1484.843872,659.554688 1488.140625,657.417114 1489.979980,657.957214 
	C1491.338745,658.356262 1493.876221,656.902771 1493.697876,659.712463 
	C1493.556763,661.934082 1491.322876,660.695984 1490.036987,661.041565 
	C1488.414917,661.477417 1485.765991,659.943787 1485.281494,662.212219 
	C1484.670288,665.073608 1484.528320,668.371460 1485.394043,671.096619 
	C1485.994751,672.987610 1489.011719,671.560974 1490.887085,671.979187 
	C1492.296265,672.293518 1494.776489,670.820007 1494.872314,673.425354 
	C1494.972534,676.154053 1492.419189,674.952881 1491.053833,674.991089 
	C1481.344482,675.262573 1481.342896,675.214783 1481.342285,665.502014 
	C1481.341797,659.504089 1481.430908,653.504272 1481.300293,647.509216 
	C1481.244141,644.926086 1482.121216,643.891235 1484.754639,644.059509 
	C1487.575806,644.239807 1490.416382,644.111511 1493.248413,644.129517 
	C1494.153809,644.135254 1494.883179,644.410339 1494.969360,645.473938 
	C1495.071167,646.727600 1494.454834,647.290894 1493.228638,647.271606 
	C1492.729248,647.263794 1492.229004,647.277222 1491.729980,647.299500 
	C1485.047607,647.598145 1485.047607,647.598938 1485.044434,654.797363 
z"/>
<path fill="#4DA343" opacity="1.000000" stroke="none" 
	d="
M1352.815186,647.962036 
	C1352.391235,649.664673 1352.411377,651.003723 1352.213989,652.309937 
	C1351.560059,656.640076 1352.945068,658.819763 1357.709351,658.060486 
	C1358.765991,657.892090 1360.703735,657.225220 1360.878662,659.272766 
	C1361.100342,661.866333 1358.898315,660.692322 1357.668213,661.008301 
	C1355.905151,661.461243 1353.080444,659.825317 1352.510620,662.282104 
	C1351.855835,665.105530 1351.802490,668.408691 1352.670532,671.125793 
	C1353.254272,672.953369 1356.253906,671.606018 1358.106323,672.027161 
	C1359.498047,672.343567 1362.004883,670.786499 1362.063110,673.455078 
	C1362.122925,676.199646 1359.557129,674.911133 1358.208984,674.945984 
	C1348.993164,675.184082 1348.991333,675.128052 1348.990845,666.137085 
	C1348.990479,660.151184 1349.189575,654.156128 1348.914673,648.182861 
	C1348.758545,644.790649 1349.971313,643.787964 1353.153198,644.101318 
	C1355.458984,644.328491 1357.804688,644.165222 1360.132446,644.145264 
	C1361.252319,644.135620 1362.117432,644.393250 1362.137695,645.727783 
	C1362.159424,647.161438 1361.139893,647.188538 1360.103027,647.233704 
	C1357.787842,647.334412 1355.473877,647.464966 1352.815186,647.962036 
z"/>
<path fill="#55A74D" opacity="1.000000" stroke="none" 
	d="
M996.000000,646.994263 
	C996.665588,645.220032 997.295471,643.490295 999.183228,644.244751 
	C1001.414307,645.136414 999.695251,646.727356 999.325195,647.939331 
	C996.783325,656.262390 991.811035,663.967957 992.998230,673.233521 
	C993.150757,674.424072 992.550110,675.052551 991.265015,674.992432 
	C989.878845,674.927612 989.633423,673.985046 989.752563,672.956055 
	C990.824524,663.692749 985.849426,656.009644 983.276917,647.693787 
	C982.961304,646.673767 981.343384,645.198547 983.273132,644.311707 
	C985.049805,643.495300 985.974731,644.803040 986.544250,646.362305 
	C988.069641,650.539124 989.615967,654.708313 991.416870,659.593689 
	C993.094116,655.020081 994.499390,651.188110 996.000000,646.994263 
z"/>
<path fill="#5FAC57" opacity="1.000000" stroke="none" 
	d="
M770.941650,667.669189 
	C770.942200,661.715698 770.988159,656.223389 770.924561,650.732361 
	C770.892517,647.965454 771.771484,645.850952 774.472473,644.777100 
	C777.529602,643.561768 780.643555,643.581909 783.718994,644.605774 
	C784.555908,644.884399 784.739014,645.843506 784.552185,646.739014 
	C784.318420,647.859436 783.478455,647.786011 782.632812,647.710022 
	C781.311523,647.591125 779.980896,647.326782 778.669617,647.399902 
	C776.236389,647.535645 774.623169,648.531799 774.672974,651.390076 
	C774.768738,656.880127 774.634949,662.373901 774.708008,667.864624 
	C774.775513,672.940857 778.547546,671.768738 781.585815,671.813354 
	C782.728516,671.830078 784.410645,670.428833 784.810913,672.640930 
	C785.194580,674.761719 783.501953,674.890686 781.948364,675.143799 
	C775.085144,676.262085 771.514709,674.014709 770.941650,667.669189 
z"/>
<path fill="#4DA343" opacity="1.000000" stroke="none" 
	d="
M856.768677,653.019165 
	C856.917053,649.576965 857.123962,646.620544 852.653198,647.207520 
	C851.509216,647.357788 850.692566,646.827332 850.861084,645.500122 
	C850.984070,644.531372 851.625366,644.145508 852.586975,644.149292 
	C856.403259,644.164246 860.219727,644.152649 864.036072,644.154236 
	C865.140625,644.154663 865.973633,644.460815 865.939880,645.802185 
	C865.903259,647.256897 864.835815,647.311523 863.861511,647.211304 
	C860.468872,646.862122 860.155884,648.855957 860.197876,651.529114 
	C860.304688,658.330688 860.267639,665.135376 860.201660,671.937988 
	C860.190674,673.074402 860.932495,674.788818 858.749756,674.972473 
	C856.213257,675.185913 856.795227,673.291260 856.786011,671.934998 
	C856.744080,665.795776 856.768188,659.656128 856.768677,653.019165 
z"/>
<path fill="#5FAC57" opacity="1.000000" stroke="none" 
	d="
M1331.648193,647.667908 
	C1329.983643,655.634033 1331.058960,663.441345 1330.652954,671.210876 
	C1330.577271,672.660095 1331.504639,674.918701 1328.783325,674.974792 
	C1325.892700,675.034546 1327.020142,672.660095 1326.995605,671.307434 
	C1326.877563,664.828064 1326.905884,658.345154 1326.960327,651.864075 
	C1326.982178,649.256042 1327.272827,646.644836 1323.269897,647.282898 
	C1322.293335,647.438538 1321.204468,647.207581 1321.176880,645.822266 
	C1321.143311,644.132385 1322.388916,644.100586 1323.583130,644.092957 
	C1326.408203,644.074768 1329.244507,643.932495 1332.054565,644.137268 
	C1333.626343,644.251953 1336.421021,642.934265 1336.431274,645.736755 
	C1336.441406,648.515198 1333.534058,646.793823 1331.648193,647.667908 
z"/>
<path fill="#5FAC57" opacity="1.000000" stroke="none" 
	d="
M1456.316772,648.353333 
	C1456.558228,646.421997 1455.611694,644.128357 1458.306763,644.192688 
	C1461.080200,644.258972 1459.980713,646.621094 1460.005981,648.005798 
	C1460.124268,654.493713 1460.327881,661.000366 1459.959839,667.469543 
	C1459.735962,671.404724 1461.136719,672.522583 1464.718872,671.963928 
	C1465.692627,671.812073 1466.711914,671.949219 1467.710327,671.957825 
	C1468.706421,671.966431 1469.231812,672.475891 1469.245728,673.468079 
	C1469.259521,674.445801 1468.777832,675.030823 1467.776855,675.035583 
	C1464.615112,675.050598 1461.451294,675.107910 1458.292480,675.010803 
	C1455.607300,674.928223 1456.359253,672.757141 1456.346191,671.274109 
	C1456.280273,663.786011 1456.316284,656.297119 1456.316772,648.353333 
z"/>
<path fill="#5FAC57" opacity="1.000000" stroke="none" 
	d="
M840.154419,674.982300 
	C828.309204,675.098389 828.309937,675.098389 828.314575,663.727905 
	C828.316833,658.230957 828.306152,652.734009 828.322876,647.237061 
	C828.327454,645.738770 828.163269,644.025208 830.466370,644.149780 
	C832.595520,644.264832 832.017944,645.987671 832.028259,647.169250 
	C832.086487,653.831726 832.317078,660.508911 831.960510,667.152710 
	C831.745117,671.164551 833.036865,672.325500 836.909912,672.021179 
	C840.813049,671.714539 840.834900,671.992676 840.154419,674.982300 
z"/>
<path fill="#5FAC57" opacity="1.000000" stroke="none" 
	d="
M1179.057373,662.983826 
	C1179.054565,666.626831 1179.066772,669.773926 1179.039673,672.920715 
	C1179.031250,673.904968 1179.052124,674.958496 1177.608154,675.024475 
	C1176.237915,675.087036 1175.355835,674.613342 1175.354004,673.110901 
	C1175.343262,664.167236 1175.335327,655.223511 1175.339722,646.279846 
	C1175.340332,644.934692 1175.887695,644.087341 1177.406738,644.128479 
	C1179.158936,644.176025 1179.036255,645.451355 1179.041382,646.587280 
	C1179.065674,651.887329 1179.055298,657.187622 1179.057373,662.983826 
z"/>
<path fill="#4BA242" opacity="1.000000" stroke="none" 
	d="
M756.164429,649.204163 
	C756.164307,656.976135 756.205078,664.272827 756.126282,671.568176 
	C756.112549,672.839172 756.964905,674.945618 754.481934,674.916748 
	C752.031860,674.888306 752.888916,672.796204 752.875610,671.525513 
	C752.795471,663.898499 752.759338,656.268860 752.897827,648.643494 
	C752.925415,647.121521 751.678772,644.304138 754.541748,644.359985 
	C757.295898,644.413818 755.718262,647.191101 756.164429,649.204163 
z"/>
<path fill="#4BA242" opacity="1.000000" stroke="none" 
	d="
M1411.167358,664.966553 
	C1411.165161,667.781311 1411.191284,670.102783 1411.148560,672.422913 
	C1411.128174,673.524658 1411.381104,674.856140 1409.617676,674.954712 
	C1407.884766,675.051575 1407.847534,673.874390 1407.846924,672.656555 
	C1407.842896,664.036011 1407.828613,655.415405 1407.850830,646.794922 
	C1407.853760,645.689514 1407.669434,644.293091 1409.385498,644.234253 
	C1411.501953,644.161743 1411.133789,645.837036 1411.143555,647.065918 
	C1411.189697,652.867859 1411.166138,658.670410 1411.167358,664.966553 
z"/>
<path fill="#5AA951" opacity="1.000000" stroke="none" 
	d="
M1515.077026,660.688538 
	C1512.973389,661.551697 1511.427368,661.330139 1511.297974,659.020325 
	C1511.224731,657.710510 1512.201660,656.851624 1513.572144,657.008545 
	C1515.763306,657.259521 1516.390381,658.456909 1515.077026,660.688538 
z"/>
<path fill="#5FAC57" opacity="1.000000" stroke="none" 
	d="
M1180.619629,638.174805 
	C1180.532104,638.806580 1180.418457,639.127502 1180.223511,639.387573 
	C1179.292847,640.629395 1179.233765,642.796631 1177.100708,642.767761 
	C1175.901123,642.751587 1176.097168,641.700317 1176.442017,640.933289 
	C1177.236816,639.164795 1177.177856,636.193054 1180.619629,638.174805 
z"/>
<path fill="#5AA951" opacity="1.000000" stroke="none" 
	d="
M642.634766,657.183594 
	C644.982727,656.840515 646.308044,657.495117 645.873474,659.762695 
	C645.602234,661.177673 644.290588,661.512817 643.148193,661.152649 
	C640.860596,660.431335 641.197510,658.906799 642.634766,657.183594 
z"/>
<path fill="#FEFEFE" opacity="1.000000" stroke="none" 
	d="
M524.568481,592.476501 
	C549.585388,630.733643 525.359741,678.996582 480.087250,681.817810 
	C452.630402,683.528931 425.720978,661.217896 421.964142,633.732971 
	C419.321991,614.403137 424.912567,597.914612 438.684357,584.150757 
	C450.826447,572.015686 463.042419,559.952698 475.040375,547.676697 
	C477.517181,545.142517 478.794403,545.228149 481.224976,547.711304 
	C493.465302,560.216736 505.942078,572.490356 518.258362,584.922180 
	C520.474915,587.159546 522.328674,589.756409 524.568481,592.476501 
z"/>
<path fill="#FDFEFD" opacity="1.000000" stroke="none" 
	d="
M872.868896,522.526550 
	C869.585876,530.880737 862.745056,533.248230 855.148621,533.791321 
	C848.515015,534.265564 841.825134,533.921631 835.161438,534.026062 
	C833.175171,534.057129 832.102905,533.619568 832.123108,531.296814 
	C832.211670,521.132080 832.173279,510.966187 832.148376,500.800812 
	C832.144348,499.145660 832.299438,497.804474 834.466431,497.850128 
	C842.289917,498.014984 850.187439,497.076111 857.924377,498.387726 
	C870.715271,500.556061 875.749329,508.808990 872.868896,522.526550 
z"/>
<path fill="#FDFEFD" opacity="1.000000" stroke="none" 
	d="
M1469.271240,560.853516 
	C1459.399170,560.965515 1449.945801,560.965515 1439.857910,560.965515 
	C1445.146729,549.156799 1450.247803,537.767151 1455.823608,525.317688 
	C1460.428955,537.883545 1466.389038,548.767334 1469.271240,560.853516 
z"/>
<path fill="#FDFEFD" opacity="1.000000" stroke="none" 
	d="
M1431.953247,671.944824 
	C1428.225830,669.054993 1430.362427,665.348145 1430.103027,662.033630 
	C1430.008423,660.823608 1431.583740,661.090393 1432.515747,661.052979 
	C1435.866943,660.918396 1438.241699,661.713196 1438.419434,665.837219 
	C1438.611572,670.295410 1436.933228,672.393799 1431.953247,671.944824 
z"/>
<path fill="#FDFEFD" opacity="1.000000" stroke="none" 
	d="
M1429.894287,653.915955 
	C1429.905762,647.236938 1431.363525,645.820435 1435.700806,647.703003 
	C1439.071655,649.166138 1438.159424,652.099487 1437.970459,654.568298 
	C1437.711304,657.954224 1434.969727,657.849182 1432.405029,657.992432 
	C1429.391846,658.160828 1429.950195,656.112915 1429.894287,653.915955 
z"/>
<path fill="#E9F4E8" opacity="1.000000" stroke="none" 
	d="
M915.729004,659.847290 
	C913.494568,659.980835 911.988586,659.792053 912.108887,657.351685 
	C912.206116,655.379944 912.010620,653.391357 912.151428,651.424988 
	C912.275452,649.694031 911.148071,647.049744 914.521851,647.157532 
	C917.249695,647.244629 920.118896,647.564575 920.084778,651.231323 
	C920.053528,654.588257 921.671021,658.904541 915.729004,659.847290 
z"/>
<path fill="#FEFEFE" opacity="1.000000" stroke="none" 
	d="
M1270.685913,667.656067 
	C1270.681274,662.042419 1270.718872,656.893799 1270.675659,651.745850 
	C1270.652710,649.015442 1271.661621,647.166504 1274.597778,647.111511 
	C1277.703735,647.053223 1279.058960,648.867493 1279.060059,651.844788 
	C1279.061768,656.992859 1279.069702,662.141052 1279.054321,667.289062 
	C1279.046509,669.893433 1278.225098,671.849976 1275.199097,672.063477 
	C1272.341187,672.265076 1270.778320,671.055542 1270.685913,667.656067 
z"/>
<path fill="#FDFEFD" opacity="1.000000" stroke="none" 
	d="
M1127.781738,655.572754 
	C1127.305542,659.570312 1124.637207,659.980896 1121.900269,659.711975 
	C1118.320557,659.360291 1120.436523,656.396301 1119.931519,654.639465 
	C1119.712646,653.878357 1119.748169,652.968994 1119.924072,652.184387 
	C1120.344727,650.309204 1118.377197,647.082153 1122.561523,647.229248 
	C1125.742432,647.341125 1128.070068,648.385864 1127.798828,652.189697 
	C1127.728638,653.173584 1127.789185,654.166687 1127.781738,655.572754 
z"/>
<path fill="#E9F4E8" opacity="1.000000" stroke="none" 
	d="
M734.634216,654.705078 
	C734.613586,658.140076 732.969666,659.581482 730.064697,659.866577 
	C727.739258,660.094849 726.143066,659.595398 726.347961,656.762817 
	C726.454895,655.283691 726.183899,653.763306 726.402832,652.309631 
	C726.697632,650.351685 724.992371,647.236572 728.994019,647.140259 
	C732.503601,647.055725 734.739685,648.429199 734.641968,652.318237 
	C734.625366,652.978699 734.639343,653.640015 734.634216,654.705078 
z"/>
<path fill="#E9F4E8" opacity="1.000000" stroke="none" 
	d="
M669.440186,657.608215 
	C670.102966,654.810669 670.637085,652.413391 671.300415,649.435974 
	C673.101440,653.092773 673.244690,656.619385 674.046570,659.951660 
	C674.316101,661.071777 675.472107,662.681580 673.608398,663.349915 
	C672.448486,663.765930 670.920532,663.750366 669.737854,663.369446 
	C667.951843,662.794128 668.981567,661.157288 668.994080,659.954102 
	C669.000793,659.304504 669.199402,658.656921 669.440186,657.608215 
z"/>
<path fill="#E9F4E8" opacity="1.000000" stroke="none" 
	d="
M948.187622,661.830444 
	C946.902710,664.585205 944.607300,663.905334 943.038696,663.242737 
	C941.132263,662.437317 942.852539,660.588806 943.050415,659.315186 
	C943.550964,656.094299 943.968750,652.798523 945.670898,649.352478 
	C946.557739,653.677490 947.350830,657.545288 948.187622,661.830444 
z"/>
<path fill="#E9F4E8" opacity="1.000000" stroke="none" 
	d="
M1202.844971,656.245728 
	C1203.241699,658.091492 1203.557861,659.533508 1203.883179,660.973511 
	C1204.447388,663.472229 1202.901733,663.660767 1201.051880,663.632507 
	C1199.302368,663.605713 1197.576050,663.665100 1198.172729,661.056396 
	C1198.965332,657.591064 1199.750732,654.124207 1201.300537,650.550781 
	C1201.789917,652.314148 1202.279175,654.077576 1202.844971,656.245728 
z"/>
</svg>